<?xml version="1.0" standalone="no"?>
<!DOCTYPE svg PUBLIC "-//W3C//DTD SVG 20010904//EN"
 "http://www.w3.org/TR/2001/REC-SVG-20010904/DTD/svg10.dtd">
<svg version="1.0" xmlns="http://www.w3.org/2000/svg"
 width="16.000000pt" height="16.000000pt" viewBox="0 0 16.000000 16.000000"
 preserveAspectRatio="xMidYMid meet">
<metadata>
Created by potrace 1.11, written by Peter Selinger 2001-2013
</metadata>
<g transform="translate(0.000000,16.000000) scale(0.001558,-0.001558)"
fill="#000000" stroke="none">
<path d="M5425 10259 c-27 -4 -66 -10 -85 -13 -86 -13 -110 -18 -116 -27 -3
-5 -9 -7 -13 -4 -14 8 -171 -54 -171 -68 0 -5 -4 -5 -10 -2 -5 3 -10 1 -10 -4
0 -6 -6 -11 -12 -11 -7 0 -25 -10 -40 -23 -14 -12 -36 -29 -47 -37 -12 -8 -21
-20 -21 -28 0 -7 -4 -10 -10 -7 -9 6 -14 -8 -11 -28 0 -4 -4 -6 -10 -5 -6 2
-16 -6 -22 -17 -7 -10 -17 -25 -24 -32 -6 -7 -21 -29 -34 -50 -13 -21 -26 -40
-29 -43 -5 -5 -82 -109 -110 -150 -8 -12 -23 -32 -34 -43 -43 -51 -104 -146
-126 -197 -43 -102 -30 -257 34 -411 8 -19 15 -38 17 -44 1 -5 14 -32 27 -60
14 -27 40 -83 57 -122 17 -40 35 -70 40 -65 4 4 5 2 2 -4 -4 -7 5 -38 19 -70
38 -86 41 -94 60 -149 9 -27 21 -54 25 -59 4 -5 5 -15 2 -22 -3 -8 1 -14 8
-14 7 0 10 -3 6 -6 -3 -3 -1 -18 5 -33 5 -14 12 -39 15 -56 3 -16 10 -33 16
-37 7 -4 9 -8 6 -8 -4 0 -3 -17 2 -37 5 -21 12 -49 15 -63 2 -14 7 -32 11 -40
3 -8 7 -24 9 -35 1 -11 5 -33 9 -50 4 -16 9 -50 12 -75 3 -25 8 -47 12 -50 3
-3 7 -18 7 -35 2 -28 11 -123 20 -190 9 -71 3 -359 -9 -435 -3 -19 -9 -57 -12
-85 -4 -27 -18 -97 -32 -155 -13 -58 -26 -109 -27 -115 -1 -5 -12 -38 -25 -73
-25 -67 -51 -89 -104 -86 -32 1 -107 33 -107 46 0 4 -4 8 -10 8 -15 0 -50 38
-60 66 -6 14 -14 22 -20 19 -5 -3 -7 0 -4 8 3 8 -1 21 -8 28 -7 8 -14 25 -16
39 -5 58 -4 181 3 260 11 130 14 419 5 475 -4 28 -10 73 -14 100 -3 28 -17 93
-31 145 -14 52 -27 105 -30 116 -9 37 -56 158 -67 172 -6 6 -7 12 -4 12 16 0
-145 291 -165 298 -5 2 -9 10 -9 17 0 8 -8 19 -17 24 -10 6 -14 11 -10 11 28
1 -319 370 -349 370 -2 0 -15 10 -30 23 -14 12 -29 22 -32 21 -4 0 -18 10 -32
23 -14 13 -28 23 -32 23 -3 0 -13 6 -20 13 -12 12 -35 26 -128 80 -75 43 -234
119 -256 121 -13 1 -29 7 -36 13 -13 10 -72 27 -74 21 0 -2 -8 3 -17 10 -9 8
-21 11 -27 7 -5 -3 -10 -1 -10 6 0 7 -3 9 -6 6 -4 -3 -14 -2 -23 2 -9 5 -29
11 -46 14 -16 3 -41 8 -55 11 -13 3 -42 8 -64 12 -22 3 -43 7 -47 9 -13 9
-182 19 -289 18 -155 -1 -175 -3 -250 -14 -36 -6 -77 -12 -93 -14 -15 -2 -31
-6 -35 -9 -4 -2 -27 -7 -52 -11 -25 -4 -49 -10 -55 -13 -12 -8 -17 -9 -46 -11
-11 0 -17 -5 -14 -11 3 -5 0 -7 -8 -4 -7 2 -27 -1 -43 -7 -35 -15 -40 -16 -60
-18 -8 0 -13 -4 -11 -8 3 -5 -6 -9 -20 -10 -14 0 -28 -5 -32 -10 -3 -4 -13 -9
-21 -11 -32 -7 -219 -106 -214 -114 3 -5 2 -8 -3 -7 -18 3 -30 -2 -51 -21 -12
-11 -23 -19 -25 -18 -5 4 -53 -30 -79 -54 -10 -10 -22 -18 -27 -18 -5 0 -19
-12 -30 -26 -12 -15 -21 -24 -21 -21 0 4 -15 -8 -33 -26 -19 -17 -45 -41 -60
-51 -14 -11 -24 -23 -21 -27 2 -4 -5 -11 -17 -14 -11 -4 -18 -9 -16 -12 3 -3
-10 -20 -29 -38 -19 -18 -34 -37 -34 -41 0 -3 -12 -17 -27 -30 -16 -13 -24
-24 -19 -24 4 0 -2 -9 -15 -20 -13 -10 -20 -19 -16 -20 4 0 -2 -10 -13 -22
-11 -13 -33 -43 -47 -68 -15 -25 -33 -51 -40 -59 -8 -7 -12 -20 -9 -28 3 -8 1
-11 -4 -8 -6 3 -10 1 -10 -5 0 -7 -9 -25 -21 -41 -11 -16 -17 -29 -13 -29 3 0
2 -6 -4 -13 -18 -21 -82 -179 -76 -188 3 -5 1 -9 -4 -9 -7 0 -59 -162 -77
-240 -2 -8 -8 -30 -14 -48 -5 -18 -11 -36 -12 -40 -2 -9 -5 -20 -19 -63 -6
-20 -12 -49 -14 -65 -3 -16 -9 -42 -15 -57 -6 -15 -10 -31 -9 -35 1 -4 -2 -18
-5 -32 -30 -113 -42 -399 -25 -555 10 -84 45 -237 74 -320 13 -38 26 -78 28
-87 15 -59 151 -308 194 -355 11 -12 18 -24 16 -26 -3 -2 11 -21 31 -41 19
-20 36 -40 37 -44 5 -16 123 -151 144 -164 6 -4 36 -32 65 -61 59 -59 183
-157 198 -157 5 0 11 -3 13 -7 5 -13 91 -66 105 -66 7 0 13 -4 13 -9 0 -8 49
-32 62 -30 3 1 12 -5 18 -13 7 -8 16 -15 21 -15 4 0 38 -14 75 -31 37 -17 72
-32 78 -33 6 -1 16 -4 21 -7 9 -6 76 -29 100 -35 6 -2 44 -12 85 -23 41 -11
91 -23 110 -26 36 -5 64 -10 110 -20 90 -18 408 -19 517 -1 93 15 156 28 223
47 41 11 83 22 93 24 9 2 21 6 26 9 5 3 26 8 47 12 20 3 47 9 58 13 12 5 51 9
88 10 111 4 188 -45 242 -152 23 -45 23 -47 5 -52 -10 -4 -19 -11 -19 -17 0
-6 -3 -8 -6 -5 -4 4 -19 -2 -33 -12 -14 -9 -41 -23 -58 -30 -18 -8 -33 -17
-33 -22 0 -5 -3 -8 -7 -7 -12 4 -183 -84 -183 -93 0 -5 -3 -8 -7 -7 -8 3 -124
-52 -133 -62 -3 -4 -20 -12 -37 -19 -18 -8 -33 -17 -33 -22 0 -5 -3 -8 -7 -7
-5 2 -65 -31 -136 -72 -70 -41 -136 -79 -147 -85 -11 -5 -20 -13 -20 -17 0 -5
-7 -8 -15 -8 -9 0 -18 -7 -21 -15 -4 -8 -10 -13 -14 -10 -5 3 -15 -2 -23 -10
-9 -8 -18 -15 -22 -15 -8 0 -216 -140 -233 -157 -7 -7 -17 -13 -21 -13 -4 0
-22 -12 -39 -27 -17 -16 -50 -41 -72 -56 -22 -16 -37 -33 -34 -39 4 -7 2 -8
-5 -4 -7 5 -23 -5 -40 -23 -16 -17 -31 -28 -34 -25 -2 3 -13 -6 -24 -19 -10
-13 -29 -29 -41 -36 -12 -7 -20 -16 -17 -22 4 -5 3 -8 -2 -7 -5 2 -28 -15 -52
-37 -40 -36 -63 -60 -143 -144 -15 -16 -24 -31 -21 -35 4 -3 0 -6 -8 -6 -8 0
-23 -15 -34 -32 -10 -18 -25 -39 -32 -46 -7 -8 -10 -18 -7 -24 4 -6 3 -8 -3
-5 -9 6 -52 -72 -45 -82 2 -2 -1 -7 -7 -10 -5 -4 -12 -19 -15 -34 -2 -14 -8
-32 -11 -38 -9 -14 -18 -90 -19 -154 -1 -141 40 -271 130 -410 18 -28 27 -40
72 -92 10 -13 23 -19 27 -15 5 4 5 2 2 -4 -9 -15 126 -139 253 -234 19 -14 48
-37 64 -51 17 -14 60 -47 96 -74 36 -27 67 -52 70 -55 25 -32 262 -167 305
-174 6 -1 15 -4 20 -8 21 -13 178 -30 218 -24 23 3 58 8 77 11 20 2 49 9 65
16 17 7 35 13 41 14 20 5 122 66 146 88 13 12 26 22 30 22 3 0 36 27 73 60 37
33 81 71 96 84 16 13 26 28 22 34 -3 5 -2 7 4 4 5 -4 19 4 30 16 11 12 43 42
72 67 30 25 68 60 87 78 18 17 38 32 44 32 6 0 9 4 6 8 -3 4 12 21 31 38 20
16 55 46 77 68 23 21 51 45 63 53 13 9 20 19 17 24 -3 5 -1 8 4 7 8 -3 77 50
124 94 10 10 23 18 28 18 6 0 10 3 10 8 0 4 20 20 45 35 25 16 42 34 38 39 -4
7 -1 8 7 3 7 -4 15 -4 19 1 8 12 120 67 146 72 11 2 27 5 35 6 8 2 29 -1 45
-6 17 -6 36 -10 42 -11 7 0 11 -2 9 -5 -3 -2 5 -14 17 -26 49 -47 63 -94 61
-201 -1 -55 -4 -116 -7 -135 -3 -19 -9 -61 -12 -94 -4 -32 -8 -68 -11 -80 -2
-12 -6 -42 -8 -67 -3 -24 -6 -45 -7 -46 -2 -3 -2 -3 -14 -58 -4 -22 -9 -44
-11 -50 -1 -5 -5 -23 -8 -40 -3 -16 -10 -45 -15 -64 -6 -18 -10 -36 -9 -40 1
-3 -2 -13 -5 -21 -3 -8 -15 -51 -27 -95 -11 -44 -32 -117 -46 -163 -15 -46
-24 -92 -21 -102 3 -11 1 -20 -5 -20 -6 0 -8 -7 -5 -15 4 -8 2 -17 -3 -20 -7
-4 -23 -68 -25 -100 0 -5 -4 -15 -7 -21 -4 -6 -9 -23 -12 -38 -3 -15 -10 -43
-16 -62 -7 -20 -9 -38 -6 -41 3 -4 2 -11 -4 -17 -11 -14 -39 -125 -43 -169 -1
-9 -4 -17 -7 -17 -4 0 -7 -6 -7 -12 0 -7 -8 -42 -17 -78 -9 -36 -18 -75 -21
-88 -3 -12 -7 -32 -10 -45 -15 -69 -28 -134 -31 -152 -10 -63 -17 -91 -22 -95
-7 -5 -9 -23 -15 -165 -5 -96 11 -237 29 -267 3 -4 7 -16 9 -25 16 -78 121
-440 135 -465 6 -10 10 -25 10 -33 0 -8 5 -15 10 -15 6 0 10 -7 10 -15 0 -8
10 -31 22 -52 39 -70 50 -93 45 -106 -6 -19 15 -34 79 -56 32 -12 74 -31 93
-44 20 -13 60 -32 89 -41 31 -11 68 -33 88 -53 l34 -34 138 -6 c75 -3 234 -6
352 -6 186 1 233 3 260 13 3 1 8 2 13 1 4 0 7 3 7 9 0 5 7 7 15 4 8 -4 15 -1
15 7 0 7 3 9 7 6 3 -4 15 1 26 10 11 10 17 13 13 6 -3 -6 15 0 41 15 27 14 50
30 51 34 2 4 10 8 17 8 8 0 16 9 20 19 4 13 12 18 22 14 9 -4 14 -2 11 3 -6
11 28 45 37 36 4 -4 5 -2 4 3 -5 17 71 156 117 217 24 31 44 64 44 72 0 9 4
16 8 16 5 0 9 7 10 15 1 8 3 22 4 30 1 8 6 15 11 15 6 0 8 3 4 6 -3 3 -1 18 5
33 5 14 11 33 13 41 2 8 8 30 14 48 5 18 10 35 10 37 1 3 1 6 2 8 2 7 11 44
13 57 2 8 6 22 9 30 8 19 48 179 52 205 1 11 6 28 10 38 4 9 5 26 2 37 -3 13
-1 18 6 13 6 -4 8 2 5 15 -4 13 -2 20 4 16 5 -3 9 2 7 12 -1 11 1 27 6 37 4
10 8 31 9 47 0 17 3 30 7 30 6 0 8 10 12 57 1 18 5 33 10 33 4 0 5 11 3 25 -3
14 -1 23 5 20 8 -6 13 24 12 78 0 9 5 17 10 17 5 0 7 9 4 20 -3 11 -2 22 3 25
4 2 11 26 14 52 4 27 10 59 13 73 3 14 6 37 7 52 0 16 4 28 7 28 3 0 6 6 7 13
6 67 10 96 15 104 3 5 8 35 10 67 3 31 7 60 11 63 3 4 6 26 6 49 0 24 5 46 10
49 6 4 7 12 1 22 -9 16 -4 50 10 68 4 6 4 16 0 23 -9 15 -2 64 8 57 9 -5 8 51
0 60 -9 8 1 45 11 45 5 0 6 13 4 28 -6 37 12 52 57 49 32 -3 35 -1 31 20 -4
21 0 23 37 25 22 1 53 3 69 5 15 1 53 4 85 7 31 2 63 8 70 13 16 13 65 9 79
-5 7 -7 20 -12 30 -12 11 0 18 -7 18 -20 0 -12 9 -30 20 -42 12 -13 20 -17 20
-9 0 11 3 11 17 0 14 -12 16 -12 8 0 -5 10 -4 12 3 7 7 -4 12 -14 12 -23 0 -9
3 -13 7 -10 3 4 20 -8 37 -26 17 -17 32 -30 32 -27 1 3 30 -20 64 -50 33 -30
65 -54 70 -53 4 1 7 -5 6 -15 -2 -10 7 -21 20 -27 39 -17 114 -86 107 -99 -3
-6 -3 -8 2 -4 7 7 97 -57 160 -114 16 -16 33 -28 38 -28 4 0 16 -8 26 -18 26
-23 38 -32 96 -72 28 -19 52 -38 53 -42 2 -5 10 -8 18 -8 8 0 14 -4 14 -10 0
-5 7 -10 15 -10 8 0 15 -5 15 -11 0 -5 5 -7 12 -3 7 5 9 2 5 -8 -4 -11 0 -15
10 -14 9 2 25 -6 35 -16 10 -10 23 -16 27 -13 5 2 12 -2 15 -10 3 -9 17 -20
31 -25 15 -6 24 -14 21 -19 -4 -5 2 -8 11 -7 10 2 20 0 23 -3 13 -17 83 -51
92 -45 6 4 8 2 5 -3 -6 -10 68 -49 86 -45 4 1 7 -2 7 -8 0 -5 8 -10 18 -10 10
0 23 -5 30 -12 7 -7 12 -8 12 -4 0 5 7 3 15 -4 9 -7 18 -10 22 -7 3 4 12 2 18
-3 7 -6 28 -12 46 -13 19 -2 39 -5 44 -8 9 -5 107 -8 355 -12 135 -1 237 19
339 68 28 14 53 25 56 25 3 0 13 7 22 15 10 8 23 16 28 17 6 1 20 12 33 25 13
13 27 23 32 23 13 0 170 157 170 171 0 6 10 20 21 30 35 30 69 81 62 93 -3 6
-3 8 2 4 7 -7 55 51 55 67 0 3 12 23 26 45 15 23 23 44 18 52 -4 7 -4 10 1 6
13 -12 71 135 82 207 1 11 6 40 11 65 18 100 -10 299 -52 363 -8 12 -16 27
-17 32 -4 24 -14 41 -32 57 -11 10 -17 18 -12 18 4 0 -10 21 -31 48 -55 68
-74 87 -74 77 0 -5 -7 1 -16 13 -8 12 -20 22 -26 22 -6 0 -81 47 -167 104
-167 111 -326 239 -458 368 -46 44 -83 78 -83 74 0 -3 -9 3 -20 14 -12 12 -25
18 -31 15 -5 -4 -8 -1 -7 7 2 7 -3 12 -9 10 -7 -1 -13 2 -13 8 0 5 -6 10 -13
10 -8 0 -22 9 -32 20 -10 11 -22 17 -26 14 -5 -3 -9 0 -9 5 0 6 -7 11 -17 11
-9 0 -13 3 -10 7 7 6 -45 42 -91 62 -12 6 -32 20 -44 31 -12 11 -28 20 -35 20
-7 0 -13 5 -13 11 0 6 -7 8 -16 5 -8 -3 -13 -2 -10 2 2 4 -16 20 -40 35 -25
15 -43 22 -39 15 3 -7 -2 -3 -11 9 -9 13 -20 23 -25 23 -5 0 -33 16 -64 35
-30 20 -57 34 -61 33 -3 -2 -10 5 -15 15 -6 9 -15 17 -21 17 -6 0 -19 6 -27
14 -9 8 -23 16 -31 18 -8 2 -21 11 -30 21 -8 10 -25 19 -37 20 -12 0 -20 4
-17 8 3 6 -25 22 -34 19 -1 0 -10 6 -18 15 -9 8 -19 13 -24 10 -5 -3 -12 0
-16 6 -5 8 -3 9 6 4 9 -5 11 -4 6 3 -4 7 -12 12 -18 12 -5 0 -38 17 -71 37
-338 202 -461 302 -627 509 -50 62 -101 164 -150 304 -21 58 -50 139 -65 180
-15 41 -29 82 -32 90 -3 8 -7 22 -9 30 -3 16 -15 57 -35 125 -7 22 -14 47 -15
55 -1 8 -11 62 -23 120 -11 58 -22 119 -25 135 -12 79 -26 174 -31 210 -4 22
-8 65 -10 95 -3 30 -7 69 -10 85 -10 59 -18 182 -17 275 0 113 10 322 17 353
2 12 7 63 10 113 2 50 7 97 9 105 3 8 8 48 11 89 4 41 9 93 12 115 2 22 6 58
8 80 2 22 6 56 10 75 3 19 8 60 10 90 3 30 7 69 10 85 4 30 8 75 22 260 17
231 6 692 -22 925 -3 25 -8 65 -10 90 -3 25 -7 56 -10 70 -2 14 -6 43 -9 65
-10 74 -28 170 -33 185 -3 8 -8 26 -10 40 -2 14 -16 63 -30 110 -15 47 -27 90
-29 95 -4 22 -47 151 -53 160 -3 6 -7 19 -8 30 -2 10 -8 22 -14 26 -6 3 -9 8
-8 10 6 8 -35 109 -45 109 -5 0 -6 3 -3 6 8 8 -66 153 -93 182 -11 12 -20 25
-20 30 0 27 -218 222 -248 222 -7 0 -12 4 -12 8 0 5 -21 18 -47 30 -94 42
-143 61 -143 57 0 -3 -11 0 -25 5 -14 5 -38 12 -53 16 -41 9 -281 11 -337 3z"/>
</g>
</svg>
